<?xml version="1.0" encoding="UTF-8"?>
<svg width="120" height="120" viewBox="0 0 120 120" xmlns="http://www.w3.org/2000/svg">

  <!-- Base -->
  <rect x="15" y="45" width="90" height="55" rx="8" fill="#FFFFFF" stroke="#0D47A1" stroke-width="4"/>

  <!-- Awning Top -->
  <path d="M15 45 Q60 25 105 45 Z" fill="#F26522"/>

  <!-- Awning Curve -->
  <path d="M15 45 Q30 55 45 45 Q60 55 75 45 Q90 55 105 45" 
        fill="none" stroke="#0D47A1" stroke-width="4" stroke-linecap="round"/>

  <!-- Windows -->
  <rect x="28" y="60" width="18" height="18" rx="3" fill="#F26522"/>
  <rect x="74" y="60" width="18" height="18" rx="3" fill="#F26522"/>

  <!-- Door -->
  <rect x="52" y="65" width="16" height="35" rx="3" fill="#FFFFFF" stroke="#0D47A1" stroke-width="3"/>

  <!-- Subtle Green Base -->
  <rect x="15" y="85" width="90" height="15" rx="0" fill="#2E7D32"/>

  <!-- Ashoka Chakra (Minimal) -->
  <circle cx="60" cy="73" r="8" fill="none" stroke="#0D47A1" stroke-width="2"/>
  <line x1="60" y1="65" x2="60" y2="81" stroke="#0D47A1" stroke-width="1"/>
  <line x1="52" y1="73" x2="68" y2="73" stroke="#0D47A1" stroke-width="1"/>
  <line x1="55" y1="68" x2="65" y2="78" stroke="#0D47A1" stroke-width="1"/>
  <line x1="65" y1="68" x2="55" y2="78" stroke="#0D47A1" stroke-width="1"/>

</svg>
