<?xml version="1.0" encoding="UTF-8"?>
<svg xmlns="http://www.w3.org/2000/svg" xmlns:xlink="http://www.w3.org/1999/xlink" width="2836" height="2836" viewBox="0 0 2836 2836">
<path fill-rule="evenodd" fill="rgb(100%, 100%, 100%)" fill-opacity="1" d="M 0.882812 0.46875 L 2835.53125 0.46875 L 2835.53125 2835.117188 L 0.882812 2835.117188 L 0.882812 0.46875 "/>
<path fill-rule="nonzero" fill="rgb(0%, 0%, 0%)" fill-opacity="1" d="M 401.25 680.148438 C 360.75 680.148438 327.917969 647.320312 327.917969 606.820312 C 327.917969 566.320312 360.75 533.488281 401.25 533.488281 L 877.898438 533.488281 C 915.695312 533.488281 946.808594 562.089844 950.796875 598.820312 L 995.148438 817.261719 L 2433.390625 817.261719 C 2488.320312 817.261719 2520.949219 864.429688 2504 916.101562 L 2302.808594 1529.078125 C 2291.03125 1564.960938 2254.078125 1594.378906 2220.46875 1594.378906 L 1152.941406 1594.378906 L 1181.96875 1737.339844 L 2205.488281 1737.339844 C 2245.988281 1737.339844 2278.820312 1770.171875 2278.820312 1810.671875 C 2278.820312 1851.171875 2245.988281 1884.003906 2205.488281 1884.003906 L 1122.339844 1884.003906 L 1122.339844 1883.710938 C 1088.210938 1883.746094 1057.671875 1859.734375 1050.71875 1824.988281 L 818.269531 680.148438 Z M 1317.238281 1980.253906 C 1406.121094 1980.253906 1478.171875 2052.300781 1478.171875 2141.175781 C 1478.171875 2230.050781 1406.121094 2302.101562 1317.238281 2302.101562 C 1228.371094 2302.101562 1156.320312 2230.050781 1156.320312 2141.175781 C 1156.320312 2052.300781 1228.371094 1980.253906 1317.238281 1980.253906 Z M 2012.039062 1980.253906 C 2100.921875 1980.253906 2172.96875 2052.300781 2172.96875 2141.175781 C 2172.96875 2230.050781 2100.921875 2302.101562 2012.039062 2302.101562 C 1923.171875 2302.101562 1851.121094 2230.050781 1851.121094 2141.175781 C 1851.121094 2052.300781 1923.171875 1980.253906 2012.039062 1980.253906 "/>
</svg>
